<svg width="105" height="50" viewBox="0 0 105 50" fill="none" xmlns="http://www.w3.org/2000/svg">
<path d="M61.2 7.55C60.3375 3.2375 56.55 0 52 0C48.3875 0 45.25 2.05 43.6875 5.05C39.925 5.45 37 8.6375 37 12.5C37 16.6375 40.3625 20 44.5 20H60.75C64.2 20 67 17.2 67 13.75C67 10.45 64.4375 7.775 61.2 7.55Z" fill="black"/>
<path d="M4.90234 26.3965C4.00391 26.7741 3.31055 27.334 2.82227 28.0762C2.34049 28.8184 2.09961 29.7201 2.09961 30.7812C2.09961 31.2109 2.14844 31.543 2.24609 31.7773C2.27214 31.862 2.30469 31.9368 2.34375 32.002C2.36979 32.0475 2.38281 32.0931 2.38281 32.1387C1.66667 32.1387 1.13607 31.9954 0.791016 31.709C0.426432 31.403 0.244141 30.8984 0.244141 30.1953C0.244141 29.7656 0.335286 29.3359 0.517578 28.9062C0.70638 28.4766 0.973307 28.0632 1.31836 27.666C1.65039 27.2819 2.04102 26.9271 2.49023 26.6016C2.93945 26.276 3.42773 25.9928 3.95508 25.752C5.07487 25.2507 6.17513 25 7.25586 25C7.55534 25 7.82227 25.013 8.05664 25.0391L6.77734 30.9961H9.7168L10.9961 25.0391H13.877L10.7031 40H7.82227L9.42383 32.4805H6.48438L4.88281 40H2.00195L4.90234 26.3965ZM16.1621 40.1172C15.179 40.1172 14.4206 39.8698 13.8867 39.375C13.3203 38.8477 13.0371 38.0371 13.0371 36.9434C13.0371 36.5332 13.0794 36.0775 13.1641 35.5762C13.2422 35.0749 13.3626 34.5736 13.5254 34.0723C13.7077 33.5124 13.9388 32.9818 14.2188 32.4805C14.5052 31.9792 14.8372 31.5365 15.2148 31.1523C16.0872 30.2669 17.1615 29.8242 18.4375 29.8242C19.2513 29.8242 19.8438 30.0195 20.2148 30.4102C20.5013 30.7161 20.6445 31.1589 20.6445 31.7383C20.6445 32.3047 20.5208 32.8385 20.2734 33.3398C20.026 33.8346 19.6842 34.2741 19.248 34.6582C18.8118 35.0358 18.3171 35.3385 17.7637 35.5664C17.2103 35.7878 16.6374 35.918 16.0449 35.957C16.0124 36.2956 15.9961 36.5625 15.9961 36.7578C15.9961 37.4089 16.1198 37.8581 16.3672 38.1055C16.582 38.3268 16.9401 38.4375 17.4414 38.4375C18.1641 38.4375 18.8249 38.2422 19.4238 37.8516C19.6777 37.6888 19.9219 37.4967 20.1562 37.2754C20.3906 37.0475 20.6641 36.7611 20.9766 36.416H21.6602C21.0286 37.4837 20.3027 38.3333 19.4824 38.9648C18.4733 39.7331 17.3665 40.1172 16.1621 40.1172ZM16.2012 35C16.5723 34.974 16.9336 34.8665 17.2852 34.6777C17.6367 34.4889 17.9492 34.2415 18.2227 33.9355C18.4961 33.623 18.7109 33.2747 18.8672 32.8906C19.0234 32.5 19.1016 32.1029 19.1016 31.6992C19.1016 31.4323 19.0625 31.2305 18.9844 31.0938C18.9128 30.9505 18.7858 30.8789 18.6035 30.8789C18.3626 30.8789 18.1185 30.9961 17.8711 31.2305C17.6302 31.4648 17.3958 31.7871 17.168 32.1973C16.9596 32.5814 16.7708 33.0176 16.6016 33.5059C16.4323 33.9941 16.2988 34.4922 16.2012 35ZM23.3789 40.1172C22.6172 40.1172 22.002 39.8796 21.5332 39.4043C20.9863 38.8444 20.7129 38.0111 20.7129 36.9043C20.7129 36.4355 20.7617 35.9408 20.8594 35.4199C20.9505 34.8991 21.0872 34.3848 21.2695 33.877C21.6862 32.7311 22.2559 31.8066 22.9785 31.1035C23.8118 30.3027 24.7721 29.9023 25.8594 29.9023C26.3997 29.9023 26.8034 29.9967 27.0703 30.1855C27.3438 30.3678 27.4805 30.612 27.4805 30.918V31.0645L27.6953 30H30.5762L29.1406 36.7969C29.082 36.9922 29.0527 37.207 29.0527 37.4414C29.0527 38.0143 29.3262 38.3008 29.873 38.3008C30.2376 38.3008 30.5697 38.1152 30.8691 37.7441C31.123 37.4316 31.3314 36.9889 31.4941 36.416H32.334C31.9759 37.4316 31.543 38.2357 31.0352 38.8281C30.6055 39.3164 30.1204 39.668 29.5801 39.8828C29.1829 40.0391 28.763 40.1172 28.3203 40.1172C27.7539 40.1172 27.3014 39.9642 26.9629 39.6582C26.6309 39.3457 26.429 38.8867 26.3574 38.2812C25.9798 38.8151 25.5827 39.2318 25.166 39.5312C24.6322 39.9219 24.0365 40.1172 23.3789 40.1172ZM24.6777 38.1836C24.8275 38.1836 24.9837 38.1445 25.1465 38.0664C25.3158 37.9883 25.4785 37.8776 25.6348 37.7344C25.9863 37.3958 26.2207 36.9564 26.3379 36.416L27.2949 31.9043C27.2949 31.8392 27.2786 31.7643 27.2461 31.6797C27.2201 31.5885 27.181 31.5039 27.1289 31.4258C26.9727 31.237 26.7546 31.1426 26.4746 31.1426C26.2077 31.1426 25.9473 31.2305 25.6934 31.4062C25.446 31.582 25.2116 31.8262 24.9902 32.1387C24.5996 32.7051 24.2773 33.444 24.0234 34.3555C23.9062 34.7591 23.8184 35.1595 23.7598 35.5566C23.7012 35.9473 23.6719 36.3021 23.6719 36.6211C23.6719 37.2852 23.7956 37.7344 24.043 37.9688C24.1276 38.0599 24.222 38.1185 24.3262 38.1445C24.4303 38.1706 24.5475 38.1836 24.6777 38.1836ZM33.4863 40.1172C32.8483 40.1172 32.3438 39.9284 31.9727 39.5508C31.556 39.1341 31.3477 38.5254 31.3477 37.7246C31.3477 37.347 31.3997 36.9108 31.5039 36.416L33.6426 26.3965L36.6016 25.9961L34.3066 36.7969C34.2546 36.9661 34.2285 37.181 34.2285 37.4414C34.2285 37.7148 34.2904 37.9069 34.4141 38.0176C34.5443 38.1283 34.7526 38.1836 35.0391 38.1836C35.2344 38.1836 35.4232 38.1413 35.6055 38.0566C35.7943 37.9655 35.9668 37.8418 36.123 37.6855C36.4421 37.3665 36.6829 36.9434 36.8457 36.416H37.6855C37.3275 37.4251 36.8783 38.2292 36.3379 38.8281C35.8822 39.3164 35.3678 39.668 34.7949 39.8828C34.3783 40.0391 33.9421 40.1172 33.4863 40.1172ZM38.8379 40.1172C38.1999 40.1172 37.6953 39.9284 37.3242 39.5508C36.9076 39.1341 36.6992 38.5254 36.6992 37.7246C36.6992 37.347 36.7513 36.9108 36.8555 36.416L38.0566 30.8008H37.3926L37.5586 30H38.2129L38.8184 27.2363L41.7773 26.8359L41.0938 30H42.2949L42.1387 30.8008H40.9375L39.6582 36.7969C39.6061 36.9661 39.5801 37.181 39.5801 37.4414C39.5801 37.7148 39.6419 37.9069 39.7656 38.0176C39.8958 38.1283 40.1042 38.1836 40.3906 38.1836C40.5859 38.1836 40.7747 38.1413 40.957 38.0566C41.1458 37.9655 41.3184 37.8418 41.4746 37.6855C41.7936 37.3665 42.0345 36.9434 42.1973 36.416H43.0371C42.679 37.4251 42.2298 38.2292 41.6895 38.8281C41.2337 39.3164 40.7194 39.668 40.1465 39.8828C39.7298 40.0391 39.2936 40.1172 38.8379 40.1172ZM49.4238 40.1172C48.597 40.1172 47.985 39.8828 47.5879 39.4141C47.2428 39.0104 47.0703 38.4928 47.0703 37.8613C47.0703 37.5618 47.1061 37.2135 47.1777 36.8164C47.2559 36.4193 47.3698 35.9082 47.5195 35.2832C47.6693 34.6452 47.7799 34.1374 47.8516 33.7598C47.9297 33.3757 47.9688 33.0436 47.9688 32.7637C47.9688 32.0801 47.7279 31.7383 47.2461 31.7383C46.9076 31.7383 46.5951 31.9173 46.3086 32.2754C46.0677 32.5814 45.8594 33.0176 45.6836 33.584L44.3262 40H41.4453L44.3457 26.3965L47.3047 25.9961L46.2305 31.0352C46.6211 30.599 47.041 30.293 47.4902 30.1172C47.8223 29.987 48.1803 29.9219 48.5645 29.9219C49.2415 29.9219 49.7754 30.0977 50.166 30.4492C50.5827 30.8333 50.791 31.4095 50.791 32.1777C50.791 32.64 50.7064 33.2422 50.5371 33.9844C50.4915 34.1992 50.4167 34.5215 50.3125 34.9512C50.1237 35.6738 49.987 36.25 49.9023 36.6797C49.8503 36.9531 49.8242 37.1745 49.8242 37.3438C49.8242 37.6107 49.8828 37.819 50 37.9688C50.1237 38.112 50.332 38.1836 50.625 38.1836C51.0221 38.1836 51.3574 38.0208 51.6309 37.6953C51.8392 37.4479 52.0638 37.0215 52.3047 36.416H53.1445C52.6497 37.8809 52.0247 38.9062 51.2695 39.4922C50.7357 39.9089 50.1204 40.1172 49.4238 40.1172ZM62.6172 26.7578H62.3828C61.1979 26.7578 60.306 27.028 59.707 27.5684C58.9844 28.2194 58.623 29.2969 58.623 30.8008C58.623 31.2174 58.6686 31.5495 58.7598 31.7969C58.7858 31.8815 58.8184 31.9564 58.8574 32.0215C58.8835 32.0671 58.8965 32.1126 58.8965 32.1582C58.1738 32.1582 57.6465 32.015 57.3145 31.7285C56.9434 31.416 56.7578 30.9147 56.7578 30.2246C56.7578 29.5345 56.8848 28.8802 57.1387 28.2617C57.3991 27.6367 57.793 27.0898 58.3203 26.6211C58.8867 26.1133 59.6061 25.7194 60.4785 25.4395C61.3574 25.1595 62.3926 25.0195 63.584 25.0195C64.2676 25.0195 64.9219 25.0586 65.5469 25.1367C65.7422 25.1562 65.9961 25.1921 66.3086 25.2441C66.8294 25.3418 67.3307 25.4069 67.8125 25.4395C68.0469 25.4655 68.3431 25.4785 68.7012 25.4785C69.1439 25.4785 69.5671 25.4395 69.9707 25.3613C70.3743 25.2832 70.7259 25.1823 71.0254 25.0586C70.9928 25.931 70.7682 26.5723 70.3516 26.9824C69.9414 27.3926 69.3327 27.5977 68.5254 27.5977C68.0892 27.5977 67.6497 27.5618 67.207 27.4902C66.7643 27.4186 66.1686 27.3079 65.4199 27.1582L62.6562 40H59.7852L62.6172 26.7578ZM67.627 30H70.5078L70.2539 31.2402C70.7096 30.8366 71.0807 30.5501 71.3672 30.3809C71.8099 30.127 72.2428 30 72.666 30C73.0957 30 73.4408 30.153 73.7012 30.459C73.8184 30.5957 73.9062 30.7552 73.9648 30.9375C74.0234 31.1133 74.0527 31.3021 74.0527 31.5039C74.0527 31.6862 74.0234 31.862 73.9648 32.0312C73.9062 32.2005 73.8184 32.3535 73.7012 32.4902C73.571 32.6335 73.4115 32.7474 73.2227 32.832C73.0404 32.9167 72.8353 32.959 72.6074 32.959C72.4316 32.959 72.2917 32.9297 72.1875 32.8711C72.0833 32.8125 72.002 32.7279 71.9434 32.6172C71.8913 32.5065 71.8555 32.3991 71.8359 32.2949C71.7773 32.015 71.7188 31.8294 71.6602 31.7383C71.6146 31.6732 71.543 31.6406 71.4453 31.6406C71.1654 31.6406 70.9277 31.6992 70.7324 31.8164C70.5371 31.9336 70.2897 32.1289 69.9902 32.4023L68.3887 40H65.5078L67.627 30ZM76.1914 40.1172C75.4297 40.1172 74.8145 39.8796 74.3457 39.4043C73.7988 38.8444 73.5254 38.0111 73.5254 36.9043C73.5254 36.4355 73.5742 35.9408 73.6719 35.4199C73.763 34.8991 73.8997 34.3848 74.082 33.877C74.4987 32.7311 75.0684 31.8066 75.791 31.1035C76.6243 30.3027 77.5846 29.9023 78.6719 29.9023C79.2122 29.9023 79.6159 29.9967 79.8828 30.1855C80.1562 30.3678 80.293 30.612 80.293 30.918V31.0645L80.5078 30H83.3887L81.9531 36.7969C81.8945 36.9922 81.8652 37.207 81.8652 37.4414C81.8652 38.0143 82.1387 38.3008 82.6855 38.3008C83.0501 38.3008 83.3822 38.1152 83.6816 37.7441C83.9355 37.4316 84.1439 36.9889 84.3066 36.416H85.1465C84.7884 37.4316 84.3555 38.2357 83.8477 38.8281C83.418 39.3164 82.9329 39.668 82.3926 39.8828C81.9954 40.0391 81.5755 40.1172 81.1328 40.1172C80.5664 40.1172 80.1139 39.9642 79.7754 39.6582C79.4434 39.3457 79.2415 38.8867 79.1699 38.2812C78.7923 38.8151 78.3952 39.2318 77.9785 39.5312C77.4447 39.9219 76.849 40.1172 76.1914 40.1172ZM77.4902 38.1836C77.64 38.1836 77.7962 38.1445 77.959 38.0664C78.1283 37.9883 78.291 37.8776 78.4473 37.7344C78.7988 37.3958 79.0332 36.9564 79.1504 36.416L80.1074 31.9043C80.1074 31.8392 80.0911 31.7643 80.0586 31.6797C80.0326 31.5885 79.9935 31.5039 79.9414 31.4258C79.7852 31.237 79.5671 31.1426 79.2871 31.1426C79.0202 31.1426 78.7598 31.2305 78.5059 31.4062C78.2585 31.582 78.0241 31.8262 77.8027 32.1387C77.4121 32.7051 77.0898 33.444 76.8359 34.3555C76.7188 34.7591 76.6309 35.1595 76.5723 35.5566C76.5137 35.9473 76.4844 36.3021 76.4844 36.6211C76.4844 37.2852 76.6081 37.7344 76.8555 37.9688C76.9401 38.0599 77.0345 38.1185 77.1387 38.1445C77.2428 38.1706 77.36 38.1836 77.4902 38.1836ZM87.1777 40.1172C86.1947 40.1172 85.4362 39.8698 84.9023 39.375C84.3359 38.8477 84.0527 38.0371 84.0527 36.9434C84.0527 36.5332 84.0951 36.0775 84.1797 35.5762C84.2578 35.0684 84.3815 34.5638 84.5508 34.0625C84.9479 32.8451 85.5111 31.875 86.2402 31.1523C87.1387 30.2669 88.2031 29.8242 89.4336 29.8242C90.2344 29.8242 90.8268 30.0163 91.2109 30.4004C91.5104 30.7064 91.6602 31.1263 91.6602 31.6602C91.6602 32.1289 91.556 32.4935 91.3477 32.7539C91.1523 32.9948 90.9017 33.1152 90.5957 33.1152C90.3743 33.1152 90.14 33.0371 89.8926 32.8809C90.0553 32.4577 90.1367 32.0638 90.1367 31.6992C90.1367 31.4453 90.0879 31.2467 89.9902 31.1035C89.8991 30.9538 89.7624 30.8789 89.5801 30.8789C89.1895 30.8789 88.7826 31.224 88.3594 31.9141C87.9753 32.526 87.6562 33.304 87.4023 34.248C87.1419 35.1725 87.0117 36.0091 87.0117 36.7578C87.0117 37.4089 87.1354 37.8581 87.3828 38.1055C87.5977 38.3268 87.9557 38.4375 88.457 38.4375C89.1797 38.4375 89.8405 38.2422 90.4395 37.8516C90.6934 37.6888 90.9375 37.4967 91.1719 37.2754C91.4062 37.0475 91.6797 36.7611 91.9922 36.416H92.6758C92.0443 37.4837 91.3184 38.3333 90.498 38.9648C89.4889 39.7331 88.3822 40.1172 87.1777 40.1172ZM99.5117 40.1172C98.6849 40.1172 98.0566 39.9219 97.627 39.5312C97.2038 39.1406 96.9922 38.5775 96.9922 37.8418C96.9922 37.5228 97.0312 37.1745 97.1094 36.7969L97.2754 36.0156C97.3275 35.8138 97.3535 35.5697 97.3535 35.2832C97.3535 34.9707 97.2982 34.7331 97.1875 34.5703C97.0768 34.401 96.8913 34.3164 96.6309 34.3164C96.416 34.3164 96.1914 34.3783 95.957 34.502C95.7227 34.6257 95.4557 34.8112 95.1562 35.0586L94.1113 40H91.2305L94.1309 26.3965L97.0898 25.9961L95.5957 33.0371L99.4531 30H101.436L97.4316 32.7832C97.6595 32.7246 97.8809 32.6953 98.0957 32.6953C98.4603 32.6953 98.7793 32.7572 99.0527 32.8809C99.3327 32.998 99.5671 33.1673 99.7559 33.3887C99.9316 33.597 100.065 33.8444 100.156 34.1309C100.247 34.4108 100.293 34.7135 100.293 35.0391C100.293 35.3451 100.267 35.599 100.215 35.8008L99.9902 36.7969C99.9251 37.0117 99.8926 37.2266 99.8926 37.4414C99.8926 37.6693 99.9512 37.8516 100.068 37.9883C100.186 38.1185 100.387 38.1836 100.674 38.1836C101.071 38.1836 101.406 38.0208 101.68 37.6953C101.888 37.4479 102.113 37.0215 102.354 36.416H103.193C102.705 37.8939 102.064 38.929 101.27 39.5215C100.749 39.9186 100.163 40.1172 99.5117 40.1172Z" fill="white"/>
</svg>
